{"title":"Rugby.Union.Scarlets.v.Munster.2013.02.16.pdtv.x264","uid":8153091,"size":910003505,"categoryP":"video","categoryS":"tv_shows","magnet":"?xt=urn:btih:d54c5ae6f91aa14c1dd79a765848534a878ee190&amp;dn=Rugby.Union.Scarlets.v.Munster.2013.02.16.pdtv.x264&amp;tr=udp%3A%2F%2Ftracker.openbittorrent.com%3A80&amp;tr=udp%3A%2F%2Fopen.demonii.com%3A1337&amp;tr=udp%3A%2F%2Ftracker.coppersurfer.tk%3A6969&amp;tr=udp%3A%2F%2Fexodus.desync.com%3A6969","seeders":1,"leechers":0,"uploader":"rugbybill","files":2,"time":1361099060,"description":"SPORT: Y Clwb Rygbi - Scarlets v Munster\nOn: S4C Digital\nDate: Saturday 16th February 2013 \nTime: 18:10 to 20:30 \n\nS4C features live RaboDirect Pro 12 rugby this evening as the Scarlets welcome Munster to Parc y Scarlets. Kick off is at 6.30pm. English commentary.\n\n\nGeneral\nComplete name: 2013.02.16.Scarlets.v.Munster.pdtv.x264.mp4\nFormat: MPEG-4\nFormat profile: Base Media\nCodec ID: isom\nFile size: 868 MiB\nDuration: 1h 32mn\nOverall bit rate mode: Variable\nOverall bit rate: 1 316 Kbps\n\nVideo\nID: 1\nFormat: AVC\nFormat/Info: Advanced Video Codec\nFormat profile: &lt;a class=&quot;__cf_email__&quot; href=&quot;/cdn-cgi/l/email-protection&quot; data-cfemail=&quot;88c0e1efe0c8c4bba6b9&quot;&gt;[email&amp;#160;protected]&lt;/a&gt;&lt;script cf-hash='f9e31' type=&quot;text/javascript&quot;&gt;\n/* &lt;![CDATA[ */!function(){try{var t=&quot;currentScript&quot;in document?document.currentScript:function(){for(var t=document.getElementsByTagName(&quot;script&quot;),e=t.length;e--;)if(t[e].getAttribute(&quot;cf-hash&quot;))return t[e]}();if(t&amp;&amp;t.previousSibling){var e,r,n,i,c=t.previousSibling,a=c.getAttribute(&quot;data-cfemail&quot;);if(a){for(e=&quot;&quot;,r=parseInt(a.substr(0,2),16),n=2;a.length-n;n+=2)i=parseInt(a.substr(n,2),16)^r,e+=String.fromCharCode(i);e=document.createTextNode(e),c.parentNode.replaceChild(e,c)}}}catch(u){}}();/* ]]&gt; */&lt;/script&gt;\nFormat settings, CABAC: Yes\nFormat settings, ReFrames: 5 frames\nCodec ID: avc1\nCodec ID/Info: Advanced Video Coding\nDuration: 1h 32mn\nBit rate: 1 183 Kbps\nMaximum bit rate: 3 185 Kbps\nWidth: 720 pixels\nHeight: 416 pixels\nDisplay aspect ratio: 1.731\nFrame rate mode: Constant\nFrame rate: 25.000 fps\nColor space: YUV\nChroma subsampling: 4:2:0\nBit depth: 8 bits\nScan type: Progressive\nBits/(Pixel*Frame): 0.158\nStream size: 781 MiB (90%)\nWriting library: x264 core 129 r2245 bc13772\n\nAudio\nID: 2\nFormat: AAC\nFormat/Info: Advanced Audio Codec\nFormat profile: LC\nCodec ID: 40\nDuration: 1h 32mn\nBit rate mode: Variable\nBit rate: 128 Kbps\nMaximum bit rate: 141 Kbps\nChannel(s): 2 channels\nChannel positions: Front: L R\nSampling rate: 48.0 KHz\nCompression mode: Lossy\nDelay relative to video: 80ms\nStream size: 84.4 MiB (10%)\nLanguage: English","torrent":{"xt":"urn:btih:d54c5ae6f91aa14c1dd79a765848534a878ee190","amp;dn":"Rugby.Union.Scarlets.v.Munster.2013.02.16.pdtv.x264","amp;tr":["udp%3A%2F%2Ftracker.openbittorrent.com%3A80","udp%3A%2F%2Fopen.demonii.com%3A1337","udp%3A%2F%2Ftracker.coppersurfer.tk%3A6969","udp%3A%2F%2Fexodus.desync.com%3A6969"],"infoHash":"d54c5ae6f91aa14c1dd79a765848534a878ee190","infoHashBuffer":{"type":"Buffer","data":[213,76,90,230,249,26,161,76,29,215,154,118,88,72,83,74,135,142,225,144]},"announce":[],"urlList":[]}}